PathFileType	4	(X/Y/Z)	./resultDataOpenSim/trcMotMarkerGrf/sub06/qtm-14-08.trc
DataRate	CameraRate	NumFrames	NumMarkers	Units	OrigDataRate	OrigDataStartFrame	OrigNumFrames
250.000000	250.000000	10	24	m	250.000000	264	527
Frame#	Time	L.Toe.Tip			R.Toe.Tip			L.Ankle.Lat			R.Ankle.Lat			L.Ankle.Med			R.Ankle.Med			L.Heel			R.Heel			L.Knee.Lat			R.Knee.Lat			L.Knee.Med			R.Knee.Med			L.Thigh.Upper			R.Thigh.Upper			L.ASIS			R.ASIS			V.Sacral			L.Acromium			R.Acromium			C7			L.Elbow			R.Elbow			L.Wrist.Lat			R.Wrist.Lat
		X1	Y1	Z1	X2	Y2	Z2	X3	Y3	Z3	X4	Y4	Z4	X5	Y5	Z5	X6	Y6	Z6	X7	Y7	Z7	X8	Y8	Z8	X9	Y9	Z9	X10	Y10	Z10	X11	Y11	Z11	X12	Y12	Z12	X13	Y13	Z13	X14	Y14	Z14	X15	Y15	Z15	X16	Y16	Z16	X17	Y17	Z17	X18	Y18	Z18	X19	Y19	Z19	X20	Y20	Z20	X21	Y21	Z21	X22	Y22	Z22	X23	Y23	Z23	X24	Y24	Z24

264	1.052	0.061084062	-0.039500969	-0.010608708	0.75584268	0.11636852	0.11121647	-0.043137183	0.026153744	-0.055366765	0.61904808	0.1079399	0.1359203	-0.044664286	0.047551699	0.028861454	0.6313361	0.1383056	0.049178655	-0.12360836	0.023129475	-0.016441891	0.5727892	0.073782075	0.0741157	0.10419554	0.36878571	-0.08002997	0.52886403	0.48820893	0.1519394	0.093448555	0.37387579	0.042401351	0.50881442	0.46573359	0.030586659	0.19950064	0.73790099	-0.15300881	0.28076989	0.75717905	0.19317798	0.29050379	0.7795062	-0.12802316	0.34860444	0.80110098	0.11343466	0.14316963	0.87356323	0.034788293	0.31914776	1.2738014	-0.17133264	0.29758998	1.2562988	0.18864508	0.23899728	1.3084601	0.003694372	0.35062424	0.95486973	-0.26200253	0.10566734	1.0123146	0.2335669	0.59048221	0.89665708	-0.20658705	0.093944351	0.79315077	0.32853685
265	1.056	0.061150405	-0.039500649	-0.010561945	0.76839082	0.11806668	0.10833493	-0.042155132	0.027084246	-0.0555649	0.6317035	0.1073307	0.1334136	-0.043475518	0.048444101	0.028765404	0.64318998	0.13813764	0.046883422	-0.12264494	0.024879638	-0.016622763	0.58579274	0.072671567	0.071716482	0.10865633	0.36838582	-0.079930595	0.53599899	0.48588082	0.15071109	0.098067885	0.37362812	0.042494167	0.51558017	0.46367657	0.029267767	0.20510905	0.73673326	-0.15252773	0.28806976	0.75543481	0.19307887	0.29645409	0.77851884	-0.12813985	0.35592842	0.80003463	0.11343583	0.14980986	0.87233945	0.0355491	0.32628885	1.272583	-0.17118142	0.30467006	1.2549329	0.18882124	0.24608911	1.3073732	0.0040525049	0.35966716	0.95360802	-0.26216039	0.1116098	1.0119047	0.23321678	0.59981391	0.89840189	-0.20494928	0.097605054	0.79324318	0.32888397
266	1.06	0.061216839	-0.039496954	-0.010513116	0.780185	0.11947336	0.10550012	-0.041147098	0.02806456	-0.055829907	0.64367085	0.1066003	0.13086457	-0.042266343	0.049401794	0.028670411	0.65441506	0.13784742	0.044581711	-0.12161754	0.02675996	-0.016769694	0.59805549	0.071494282	0.069260172	0.11325377	0.36794149	-0.079835476	0.54322673	0.48360089	0.14948032	0.10282022	0.37333406	0.042599269	0.52239994	0.46157556	0.027853593	0.21080167	0.73557201	-0.15203563	0.2953539	0.75366774	0.19291699	0.30256858	0.77752794	-0.12822938	0.36319441	0.79892741	0.11335802	0.15666984	0.87106075	0.03620691	0.33342301	1.2713676	-0.17101821	0.31175879	1.2535658	0.18902038	0.25319647	1.306284	0.0044204816	0.3687438	0.95239198	-0.26227501	0.1176211	1.0114579	0.23290761	0.60905815	0.90003331	-0.20331883	0.10145104	0.79330978	0.3292243
267	1.064	0.061284516	-0.039490772	-0.0104645	0.79123376	0.12048694	0.10272716	-0.040079969	0.029088495	-0.056078698	0.65487018	0.10579111	0.12832555	-0.041013077	0.050412465	0.028560791	0.66503369	0.1374263	0.042250689	-0.1205068	0.02874147	-0.016926509	0.60956684	0.07026459	0.066743287	0.11798613	0.36745507	-0.079749702	0.55057309	0.48141875	0.14825338	0.1077092	0.3729644	0.042734816	0.52927467	0.45945856	0.026341012	0.21658639	0.73441921	-0.15153184	0.30269695	0.75191861	0.19273353	0.30878788	0.77654413	-0.12829456	0.37047288	0.79779425	0.11322829	0.16373575	0.86974641	0.036777843	0.3405532	1.2701586	-0.17084276	0.31885478	1.2521986	0.1892467	0.26036545	1.3051817	0.0047352238	0.37781147	0.9512322	-0.26216242	0.1237019	1.0109746	0.23263988	0.61821763	0.90155313	-0.20169865	0.10548144	0.7933415	0.32955974
268	1.068	0.061355725	-0.039484423	-0.010418533	0.80155381	0.12103502	0.10002236	-0.0389299	0.030157248	-0.056281266	0.66510823	0.10499534	0.1258662	-0.039683968	0.051458778	0.028410129	0.67504507	0.13685227	0.039890814	-0.119296	0.030787152	-0.017143279	0.62034952	0.068990473	0.064142557	0.12286718	0.36692994	-0.079685551	0.5580177	0.47934619	0.14700646	0.11273739	0.37250228	0.042907713	0.53622989	0.45735148	0.024754765	0.22247192	0.73327564	-0.15101549	0.31020145	0.75024943	0.19257731	0.31508059	0.775579	-0.12834554	0.37792192	0.79669044	0.11312042	0.17094729	0.86842635	0.037266253	0.34768451	1.2689607	-0.17065233	0.32596281	1.2508312	0.18950635	0.26758854	1.3040732	0.005011013	0.38685231	0.95011548	-0.2616998	0.12985366	1.0104593	0.23241146	0.62729591	0.90296516	-0.20009464	0.10964261	0.79331238	0.32988238
269	1.072	0.061431329	-0.039482196	-0.010376319	0.81115442	0.12108175	0.097390944	-0.037690285	0.031267743	-0.056484253	0.67413378	0.10430662	0.12355695	-0.038258791	0.052538005	0.02820632	0.68442521	0.13608681	0.037519519	-0.11798501	0.032887942	-0.017425275	0.63045357	0.067657448	0.061414032	0.1279113	0.36637333	-0.07966417	0.56551159	0.47736838	0.14570273	0.11791111	0.37196731	0.043080881	0.54328976	0.45527646	0.023132732	0.22846599	0.7321423	-0.15048926	0.31799184	0.74872592	0.19250293	0.32144248	0.77463647	-0.12839203	0.3856473	0.79566273	0.11308223	0.17818845	0.86713027	0.037730332	0.35481993	1.2677825	-0.17043967	0.33308702	1.2494643	0.18980071	0.27484288	1.3029699	0.0052863429	0.39588406	0.94901202	-0.26100423	0.13607807	1.0099202	0.23221896	0.63629504	0.90426965	-0.19850846	0.11386145	0.79320579	0.33018033
270	1.076	0.061509534	-0.039489337	-0.01033644	0.82003532	0.12062379	0.094837176	-0.036368854	0.032409893	-0.056760813	0.6818928	0.10369587	0.12140317	-0.036731463	0.053661371	0.027951211	0.693137	0.13508006	0.03515721	-0.11657774	0.035064353	-0.017746603	0.63988942	0.066225354	0.058553744	0.13312166	0.36579065	-0.079702077	0.57301202	0.47546684	0.14431971	0.1232402	0.37142025	0.043173048	0.55044418	0.45325518	0.021501419	0.23457084	0.73102101	-0.14996473	0.3261626	0.74738842	0.19254739	0.32788872	0.77371422	-0.12843946	0.39358631	0.79469347	0.113073	0.18532599	0.86589347	0.038301203	0.3619625	1.2666348	-0.17019881	0.3402297	1.2481013	0.1901266	0.28211554	1.3018781	0.0055899359	0.40489619	0.9479011	-0.26032414	0.14237956	1.0093618	0.23206056	0.64521306	0.90546131	-0.19693469	0.11814838	0.79303059	0.33044996
271	1.08	0.061588501	-0.039507389	-0.010295821	0.82819789	0.11967761	0.092355128	-0.034970174	0.033577909	-0.057144925	0.6887534	0.10292391	0.11929101	-0.035095805	0.054841505	0.0276493	0.7011577	0.13377497	0.032823027	-0.11506812	0.03733932	-0.01808877	0.64857249	0.064637248	0.055662147	0.13849119	0.36518162	-0.07979128	0.58049779	0.47363051	0.14285848	0.12872342	0.37089882	0.043147482	0.55765278	0.4513074	0.019867508	0.24078172	0.72991388	-0.14945916	0.33466483	0.74622314	0.19267099	0.33443438	0.77281095	-0.12849014	0.40160367	0.7937282	0.11301279	0.19232573	0.86473799	0.03906765	0.36911815	1.2655276	-0.16992709	0.34739486	1.2467475	0.19048254	0.28940591	1.3008008	0.0059394206	0.41381944	0.94679968	-0.25975433	0.14876385	1.0087824	0.231936	0.65404581	0.90653667	-0.19536858	0.12264567	0.79280895	0.33069908
272	1.084	0.06167083	-0.039527935	-0.010253525	0.8356572	0.11826728	0.089924985	-0.033473233	0.034774979	-0.057607931	0.69523643	0.1016997	0.11707548	-0.033340406	0.056082178	0.027301536	0.70850756	0.13212886	0.03051838	-0.11344284	0.03971986	-0.018446989	0.65639666	0.062839634	0.052880477	0.14400329	0.36454228	-0.079902706	0.58795839	0.471846	0.1413336	0.13435097	0.3703508	0.043083604	0.56486766	0.44944789	0.018227159	0.24709199	0.72882599	-0.14898634	0.34326123	0.74515679	0.19273723	0.34107528	0.77192925	-0.12854992	0.40964189	0.79273981	0.11286083	0.19933694	0.86363311	0.039949366	0.37629129	1.2644673	-0.16962019	0.35459011	1.2454085	0.19087052	0.2967209	1.2997431	0.006347321	0.42259264	0.94574678	-0.25918209	0.15523024	1.0081791	0.23184364	0.66279082	0.90749743	-0.19381155	0.12747941	0.79256078	0.33093825
273	1.088	0.061763825	-0.039535382	-0.01021334	0.8424417	0.11641801	0.087522719	-0.031842958	0.036010007	-0.058092444	0.70155476	0.099919356	0.1147166	-0.031461128	0.057373965	0.026904131	0.71523556	0.1301553	0.028215526	-0.11168879	0.042198913	-0.018819724	0.66335518	0.060804846	0.050264219	0.14963541	0.36386958	-0.080007256	0.59537109	0.47008668	0.13975987	0.14014921	0.36970873	0.043044633	0.5720406	0.4476848	0.016576955	0.25350077	0.7277658	-0.14854963	0.35171893	0.74410981	0.19261699	0.34779288	0.77107267	-0.12863251	0.41772569	0.79173539	0.11261537	0.20659736	0.86250916	0.040759303	0.38348128	1.2634582	-0.16927045	0.36182412	1.2440881	0.19129232	0.30406518	1.2987121	0.0068208621	0.43122426	0.94476554	-0.2584942	0.16177134	1.0075527	0.23177913	0.67144959	0.90834572	-0.19226632	0.13259688	0.79229322	0.33116698
